<?xml version="1.0" encoding="utf-8"?>
<svg xmlns="http://www.w3.org/2000/svg"
	xmlns:xlink="http://www.w3.org/1999/xlink"
	width="50px" height="50px" viewBox="0 0 50 50">
<path fillRule="evenodd" d="M 47.25 18.93C 44.64 21.54 40.87 21.67 40.14 21.67 40.14 21.67 39.96 21.67 39.96 21.67 39.96 21.67 35.84 21.67 35.84 21.67 35.84 21.67 35.83 21.67 35.83 21.67 35.72 21.67 35.61 21.65 35.51 21.61 35.49 21.6 35.48 21.58 35.46 21.57 35.38 21.53 35.31 21.49 35.24 21.43 35.17 21.36 35.13 21.28 35.09 21.2 35.08 21.18 35.07 21.17 35.07 21.16 35.02 21.05 35 20.94 35 20.83 35 20.83 35 20.83 35 20.83 35 20.83 35 16.67 35 16.67 34.99 16.53 34.85 12.31 37.74 9.41 40.36 6.8 44.13 6.67 44.86 6.67 44.86 6.67 45.03 6.67 45.03 6.67 45.03 6.67 49.16 6.67 49.16 6.67 49.62 6.67 50 7.04 50 7.5 50 7.5 50 11.67 50 11.67 50 11.81 50.15 16.03 47.25 18.93ZM 48.33 11.7C 48.33 11.7 48.33 8.34 48.33 8.34 48.33 8.34 44.86 8.33 44.86 8.33 44.24 8.33 41.07 8.44 38.92 10.59 36.54 12.97 36.66 16.6 36.67 16.63 36.67 16.63 36.67 18.83 36.67 18.83 36.67 18.83 45.24 10.25 45.24 10.25 45.57 9.92 46.1 9.92 46.42 10.25 46.75 10.57 46.75 11.1 46.42 11.43 46.42 11.43 37.84 20 37.84 20 37.84 20 40.14 20.01 40.14 20.01 40.75 20.01 43.93 19.9 46.07 17.75 48.44 15.38 48.33 11.74 48.33 11.7ZM 34.75 37.26C 34.59 37.42 34.38 37.5 34.17 37.5 33.95 37.5 33.74 37.42 33.58 37.26 33.56 37.24 32.93 36.67 31.67 36.67 31.67 36.67 26.67 36.67 26.67 36.67 25.14 36.67 23.41 35.37 21.58 34 20.12 32.91 18.47 31.67 17.5 31.67 17.5 31.67 10.83 31.67 10.83 31.67 10.37 31.67 10 31.29 10 30.83 10 30.37 10.37 30 10.83 30 10.83 30 17.5 30 17.5 30 19.03 30 20.75 31.29 22.58 32.67 24.04 33.76 25.69 35 26.67 35 26.67 35 31.67 35 31.67 35 33.62 35 34.64 35.97 34.75 36.08 35.08 36.4 35.08 36.93 34.75 37.26ZM 33.33 30.83C 33.33 31.3 32.96 31.67 32.5 31.67 32.04 31.67 31.67 31.3 31.67 30.83 31.67 30.83 31.67 15 31.67 15 31.67 15 28.2 15 28.2 15 27.47 15 23.69 14.87 21.08 12.25 18.19 9.36 18.33 5.14 18.34 4.96 18.34 4.96 18.34 0.83 18.34 0.83 18.34 0.37 18.71 0 19.17 0 19.17 0 23.48-0 23.48-0 24.5-0 28.04 0.2 30.58 2.74 33.48 5.63 33.34 9.85 33.33 10.03 33.33 10.03 33.33 30.83 33.33 30.83ZM 29.41 3.92C 27.26 1.77 24.09 1.67 23.48 1.67 23.48 1.67 20 1.67 20 1.67 20 1.67 20 5 20 5 20 5.07 19.89 8.71 22.26 11.07 24.41 13.23 27.58 13.34 28.2 13.34 28.2 13.34 30.5 13.34 30.5 13.34 30.5 13.34 21.91 4.75 21.91 4.75 21.59 4.43 21.59 3.9 21.91 3.57 22.24 3.25 22.77 3.25 23.09 3.57 23.09 3.57 31.67 12.15 31.67 12.15 31.67 12.15 31.67 10 31.67 10 31.67 9.93 31.77 6.29 29.41 3.92ZM 4.17 44.58C 4.17 45.27 3.61 45.83 2.92 45.83 2.23 45.83 1.67 45.27 1.67 44.58 1.67 43.89 2.23 43.33 2.92 43.33 3.61 43.33 4.17 43.89 4.17 44.58ZM 5.83 50C 5.83 50 0.83 50 0.83 50 0.37 50-0 49.63-0 49.17-0 48.71 0.37 48.33 0.83 48.33 0.83 48.33 5.83 48.33 5.83 48.33 6.29 48.33 6.67 47.96 6.67 47.5 6.67 47.5 6.67 29.17 6.67 29.17 6.67 28.71 6.29 28.33 5.83 28.33 5.83 28.33 0.83 28.33 0.83 28.33 0.37 28.33-0 27.96-0 27.5-0 27.04 0.37 26.67 0.83 26.67 0.83 26.67 5.83 26.67 5.83 26.67 7.21 26.67 8.33 27.79 8.33 29.17 8.33 29.17 8.33 47.5 8.33 47.5 8.33 48.88 7.21 50 5.83 50ZM 10.83 41.67C 14.32 41.67 16.13 42.55 16.21 42.59 16.31 42.64 23.61 46.67 28.33 46.67 33.78 46.67 36.18 45.15 36.21 45.14 36.21 45.14 47.47 38.12 47.47 38.12 48.29 37.65 48.57 36.63 48.11 35.83 47.89 35.45 47.53 35.17 47.1 35.06 46.67 34.94 46.22 35 45.83 35.22 45.83 35.22 36.2 39.92 36.2 39.92 34.36 40.83 32.63 40.83 29.17 40.83 25.8 40.83 20.9 40.02 20.7 39.99 20.24 39.91 19.93 39.48 20.01 39.03 20.09 38.58 20.51 38.27 20.97 38.34 21.02 38.35 25.94 39.17 29.17 39.17 32.46 39.17 33.97 39.17 35.46 38.42 35.46 38.42 45.05 33.75 45.05 33.75 45.77 33.33 46.67 33.22 47.53 33.45 48.39 33.68 49.11 34.23 49.55 35 50.47 36.59 49.92 38.63 48.33 39.55 48.33 39.55 37.11 46.54 37.11 46.54 37.02 46.6 34.35 48.33 28.33 48.33 23.18 48.33 15.74 44.24 15.43 44.06 15.43 44.06 15.43 44.06 15.43 44.06 15.43 44.06 13.86 43.33 10.83 43.33 10.37 43.33 10 42.96 10 42.5 10 42.04 10.37 41.67 10.83 41.67Z" fill="rgb(169,197,59)"/></svg>