<?xml version="1.0" encoding="utf-8"?>
<svg xmlns="http://www.w3.org/2000/svg"
	xmlns:xlink="http://www.w3.org/1999/xlink"
	width="50px" height="44px" viewBox="0 0 50 44">
<path fillRule="evenodd" d="M 50 10.92C 50 10.92 50 12.47 50 12.47 50 12.47 46.94 12.47 46.94 12.47 46.94 12.47 46.94 3.92 46.94 3.92 46.94 3.92 50 3.92 50 3.92 50 3.92 50 5.46 50 5.46 50 5.46 48.47 5.46 48.47 5.46 48.47 5.46 48.47 10.92 48.47 10.92 48.47 10.92 50 10.92 50 10.92ZM 44.39 1.55C 44.39 1.55 5.51 1.55 5.51 1.55 5.51 1.55 5.51 41.73 5.51 41.73 5.51 41.73 3.98 41.73 3.98 41.73 3.98 41.73 3.98-0 3.98-0 3.98-0 45.92-0 45.92-0 45.92-0 45.92 41.73 45.92 41.73 45.92 41.73 44.39 41.73 44.39 41.73 44.39 41.73 44.39 1.55 44.39 1.55ZM 13.27 40.05C 13.27 40.05 11.77 40.05 11.77 40.05 11.77 40.05 11.77 36.14 11.77 36.14 11.77 36.14 12.55 36.14 12.55 36.14 12.55 36.14 12.55 32.87 12.55 32.87 12.55 32.87 8.67 32.87 8.67 32.87 8.67 32.87 8.67 41.73 8.67 41.73 8.67 41.73 7.14 41.73 7.14 41.73 7.14 41.73 7.14 3.19 7.14 3.19 7.14 3.19 42.96 3.19 42.96 3.19 42.96 3.19 42.96 41.73 42.96 41.73 42.96 41.73 41.43 41.73 41.43 41.73 41.43 41.73 41.43 32.87 41.43 32.87 41.43 32.87 37.45 32.87 37.45 32.87 37.45 32.87 37.45 36.14 37.45 36.14 37.45 36.14 38.23 36.14 38.23 36.14 38.23 36.14 38.23 40.05 38.23 40.05 38.23 40.05 36.73 40.05 36.73 40.05 36.73 40.05 36.73 42.45 36.73 42.45 36.73 42.45 49.9 42.45 49.9 42.45 49.9 42.45 49.9 44 49.9 44 49.9 44 0 44 0 44 0 44 0 42.45 0 42.45 0 42.45 13.27 42.45 13.27 42.45 13.27 42.45 13.27 40.05 13.27 40.05ZM 41.43 31.32C 41.43 31.32 41.43 28.23 41.43 28.23 41.43 28.23 39.69 28.23 39.69 28.23 39.69 28.23 39.69 26.69 39.69 26.69 39.69 26.69 41.43 26.69 41.43 26.69 41.43 26.69 41.43 23.6 41.43 23.6 41.43 23.6 39.69 23.6 39.69 23.6 39.69 23.6 39.69 22.05 39.69 22.05 39.69 22.05 41.43 22.05 41.43 22.05 41.43 22.05 41.43 18.86 41.43 18.86 41.43 18.86 39.69 18.86 39.69 18.86 39.69 18.86 39.69 17.31 39.69 17.31 39.69 17.31 41.43 17.31 41.43 17.31 41.43 17.31 41.43 14.01 41.43 14.01 41.43 14.01 39.69 14.01 39.69 14.01 39.69 14.01 39.69 12.47 39.69 12.47 39.69 12.47 41.43 12.47 41.43 12.47 41.43 12.47 41.43 9.38 41.43 9.38 41.43 9.38 39.69 9.38 39.69 9.38 39.69 9.38 39.69 7.83 39.69 7.83 39.69 7.83 41.43 7.83 41.43 7.83 41.43 7.83 41.43 4.74 41.43 4.74 41.43 4.74 8.67 4.74 8.67 4.74 8.67 4.74 8.67 7.83 8.67 7.83 8.67 7.83 10.2 7.83 10.2 7.83 10.2 7.83 10.2 9.38 10.2 9.38 10.2 9.38 8.67 9.38 8.67 9.38 8.67 9.38 8.67 12.47 8.67 12.47 8.67 12.47 10.2 12.47 10.2 12.47 10.2 12.47 10.2 14.01 10.2 14.01 10.2 14.01 8.67 14.01 8.67 14.01 8.67 14.01 8.67 17.31 8.67 17.31 8.67 17.31 10.2 17.31 10.2 17.31 10.2 17.31 10.2 18.86 10.2 18.86 10.2 18.86 8.67 18.86 8.67 18.86 8.67 18.86 8.67 22.05 8.67 22.05 8.67 22.05 10.2 22.05 10.2 22.05 10.2 22.05 10.2 23.6 10.2 23.6 10.2 23.6 8.67 23.6 8.67 23.6 8.67 23.6 8.67 26.69 8.67 26.69 8.67 26.69 10.2 26.69 10.2 26.69 10.2 26.69 10.2 28.23 10.2 28.23 10.2 28.23 8.67 28.23 8.67 28.23 8.67 28.23 8.67 31.32 8.67 31.32 8.67 31.32 14.9 31.32 14.9 31.32 14.9 31.32 14.9 32.87 14.9 32.87 14.9 32.87 14.08 32.87 14.08 32.87 14.08 32.87 14.08 36.14 14.08 36.14 14.08 36.14 35.92 36.14 35.92 36.14 35.92 36.14 35.92 32.87 35.92 32.87 35.92 32.87 35.2 32.87 35.2 32.87 35.2 32.87 35.2 31.32 35.2 31.32 35.2 31.32 41.43 31.32 41.43 31.32ZM 32.04 40.91C 32.04 40.91 35.2 40.91 35.2 40.91 35.2 40.91 35.2 40.05 35.2 40.05 35.2 40.05 32.04 40.05 32.04 40.05 32.04 40.05 32.04 40.91 32.04 40.91ZM 19.49 42.45C 19.49 42.45 30.51 42.45 30.51 42.45 30.51 42.45 30.51 40.05 30.51 40.05 30.51 40.05 19.49 40.05 19.49 40.05 19.49 40.05 19.49 42.45 19.49 42.45ZM 14.8 40.91C 14.8 40.91 17.96 40.91 17.96 40.91 17.96 40.91 17.96 40.05 17.96 40.05 17.96 40.05 14.8 40.05 14.8 40.05 14.8 40.05 14.8 40.91 14.8 40.91ZM 13.3 38.5C 13.3 38.5 36.7 38.5 36.7 38.5 36.7 38.5 36.7 37.69 36.7 37.69 36.7 37.69 13.3 37.69 13.3 37.69 13.3 37.69 13.3 38.5 13.3 38.5ZM 11.73 26.69C 11.73 26.69 38.27 26.69 38.27 26.69 38.27 26.69 38.27 28.23 38.27 28.23 38.27 28.23 11.73 28.23 11.73 28.23 11.73 28.23 11.73 26.69 11.73 26.69ZM 11.73 22.05C 11.73 22.05 38.27 22.05 38.27 22.05 38.27 22.05 38.27 23.6 38.27 23.6 38.27 23.6 11.73 23.6 11.73 23.6 11.73 23.6 11.73 22.05 11.73 22.05ZM 11.73 17.31C 11.73 17.31 38.27 17.31 38.27 17.31 38.27 17.31 38.27 18.86 38.27 18.86 38.27 18.86 11.73 18.86 11.73 18.86 11.73 18.86 11.73 17.31 11.73 17.31ZM 11.73 12.47C 11.73 12.47 38.27 12.47 38.27 12.47 38.27 12.47 38.27 14.01 38.27 14.01 38.27 14.01 11.73 14.01 11.73 14.01 11.73 14.01 11.73 12.47 11.73 12.47ZM 11.73 7.83C 11.73 7.83 38.27 7.83 38.27 7.83 38.27 7.83 38.27 9.38 38.27 9.38 38.27 9.38 11.73 9.38 11.73 9.38 11.73 9.38 11.73 7.83 11.73 7.83ZM 17.24 31.32C 17.24 31.32 17.24 32.87 17.24 32.87 17.24 32.87 15.61 32.87 15.61 32.87 15.61 32.87 15.61 31.32 15.61 31.32 15.61 31.32 17.24 31.32 17.24 31.32ZM 34.39 31.32C 34.39 31.32 34.39 32.87 34.39 32.87 34.39 32.87 32.76 32.87 32.76 32.87 32.76 32.87 32.76 31.32 32.76 31.32 32.76 31.32 34.39 31.32 34.39 31.32ZM 18.78 32.87C 18.78 32.87 18.06 32.87 18.06 32.87 18.06 32.87 18.06 31.32 18.06 31.32 18.06 31.32 31.94 31.32 31.94 31.32 31.94 31.32 31.94 32.87 31.94 32.87 31.94 32.87 31.22 32.87 31.22 32.87 31.22 32.87 31.22 33.9 31.22 33.9 31.22 33.9 35.2 33.9 35.2 33.9 35.2 33.9 35.2 35.45 35.2 35.45 35.2 35.45 29.69 35.45 29.69 35.45 29.69 35.45 29.69 32.87 29.69 32.87 29.69 32.87 20.31 32.87 20.31 32.87 20.31 32.87 20.31 35.45 20.31 35.45 20.31 35.45 14.9 35.45 14.9 35.45 14.9 35.45 14.9 33.9 14.9 33.9 14.9 33.9 18.78 33.9 18.78 33.9 18.78 33.9 18.78 32.87 18.78 32.87ZM 28.88 35.45C 28.88 35.45 21.12 35.45 21.12 35.45 21.12 35.45 21.12 33.9 21.12 33.9 21.12 33.9 28.88 33.9 28.88 33.9 28.88 33.9 28.88 35.45 28.88 35.45Z" fill="rgb(169,197,59)"/></svg>