<?xml version="1.0" encoding="utf-8"?>
<svg xmlns="http://www.w3.org/2000/svg"
	xmlns:xlink="http://www.w3.org/1999/xlink"
	width="50px" height="45px" viewBox="0 0 50 45">
<path fillRule="evenodd" d="M 49.87 26.74C 49.87 26.74 48.81 28.44 48.81 28.44 48.25 29.34 47.26 30.24 46.15 30.89 46.15 30.89 46.57 31.6 46.57 31.6 46.81 32 46.67 32.51 46.27 32.74 46.27 32.74 45.53 33.16 45.53 33.16 45.53 33.16 46.82 35.32 46.82 35.32 47.05 35.71 46.91 36.22 46.51 36.46 46.51 36.46 42.12 38.98 42.12 38.98 41.99 39.05 41.84 39.09 41.69 39.09 41.62 39.09 41.55 39.08 41.48 39.06 41.26 39.01 41.07 38.87 40.96 38.68 40.96 38.68 39.68 36.52 39.68 36.52 39.68 36.52 38.95 36.94 38.95 36.94 38.81 37.01 38.67 37.05 38.52 37.05 38.29 37.05 38.06 36.96 37.89 36.78 37.89 36.78 35.19 33.86 35.19 33.86 34.5 33.85 33.84 33.69 33.24 33.33 33.24 33.33 29.69 31.19 29.69 31.19 29.49 31.33 29.3 31.46 29.1 31.6 27.09 32.99 25.02 34.43 24.65 36.5 24.62 36.66 24.53 36.81 24.41 36.93 24.52 37.36 24.57 37.8 24.57 38.26 24.57 41.48 21.91 44.09 18.64 44.09 16.63 44.09 14.85 43.1 13.78 41.59 13.78 41.59 6.78 41.59 6.78 41.59 6.78 41.59 6.78 42.43 6.78 42.43 6.78 43.85 5.61 45 4.16 45 4.16 45-0 45-0 45-0 45-0 31.59-0 31.59-0 31.59 4.16 31.59 4.16 31.59 5.61 31.59 6.78 32.75 6.78 34.17 6.78 34.17 6.78 34.93 6.78 34.93 6.78 34.93 13.78 34.93 13.78 34.93 14.86 33.42 16.63 32.43 18.64 32.43 18.96 32.43 19.27 32.46 19.57 32.5 20.79 31.17 21.13 29.03 21.46 26.95 21.49 26.73 21.53 26.51 21.57 26.29 21.57 26.29 9.54 19.04 9.54 19.04 8.51 18.42 7.84 17.3 7.57 15.83 7.57 15.83 3.39 15.83 3.39 15.83 3.39 15.83 3.39 0.83 3.39 0.83 3.39 0.37 3.77-0 4.24-0 4.7-0 5.08 0.37 5.08 0.83 5.08 0.83 5.08 14.17 5.08 14.17 5.08 14.17 7.45 14.17 7.45 14.17 7.49 12.67 7.91 11.15 8.58 10.06 8.58 10.06 8.96 9.46 8.96 9.46 9.08 9.26 9.27 9.14 9.49 9.09 9.53 7.73 9.91 6.33 10.52 5.36 10.52 5.36 11.58 3.66 11.58 3.66 11.7 3.47 11.89 3.33 12.1 3.28 12.32 3.23 12.55 3.27 12.74 3.38 12.74 3.38 49.59 25.59 49.59 25.59 49.78 25.71 49.92 25.89 49.97 26.11 50.03 26.32 49.99 26.55 49.87 26.74ZM 5.08 41.59C 5.08 41.59 5.08 34.93 5.08 34.93 5.08 34.93 5.08 34.17 5.08 34.17 5.08 33.67 4.67 33.26 4.16 33.26 4.16 33.26 1.69 33.26 1.69 33.26 1.69 33.26 1.69 43.33 1.69 43.33 1.69 43.33 4.16 43.33 4.16 43.33 4.67 43.33 5.08 42.93 5.08 42.43 5.08 42.43 5.08 41.59 5.08 41.59ZM 12.77 37.49C 12.78 37.44 12.78 37.38 12.79 37.33 12.83 37.08 12.89 36.84 12.96 36.6 12.96 36.6 12.96 36.6 12.96 36.59 12.96 36.59 6.78 36.59 6.78 36.59 6.78 36.59 6.78 39.93 6.78 39.93 6.78 39.93 12.96 39.93 12.96 39.93 12.96 39.92 12.96 39.92 12.96 39.92 12.89 39.68 12.83 39.44 12.79 39.19 12.78 39.13 12.78 39.08 12.77 39.03 12.73 38.77 12.71 38.52 12.71 38.26 12.71 38 12.73 37.74 12.77 37.49ZM 42 37.12C 42 37.12 44.92 35.44 44.92 35.44 44.92 35.44 44.07 34 44.07 34 44.07 34 41.14 35.68 41.14 35.68 41.14 35.68 42 37.12 42 37.12ZM 38.69 35.16C 38.69 35.16 39.56 34.66 39.56 34.66 39.56 34.66 39.56 34.66 39.56 34.66 39.56 34.66 42.26 33.11 42.26 33.11 42.26 33.11 44.68 31.72 44.68 31.72 44.68 31.72 44.6 31.59 44.6 31.59 44.59 31.59 44.58 31.59 44.56 31.6 44.05 31.76 43.55 31.85 43.09 31.85 43.03 31.85 42.98 31.84 42.93 31.84 42.92 31.84 42.91 31.84 42.9 31.84 42.64 31.82 42.39 31.79 42.16 31.73 42.16 31.73 42.16 31.72 42.16 31.72 41.94 31.67 41.74 31.58 41.55 31.48 41.53 31.47 41.51 31.47 41.49 31.45 41.49 31.45 40.44 31.67 40.44 31.67 40.42 31.7 40.39 31.72 40.36 31.74 40.26 31.82 40.16 31.9 40.05 31.98 39.9 32.1 39.75 32.23 39.59 32.34 39.55 32.37 39.5 32.39 39.46 32.42 39.24 32.57 39.02 32.71 38.79 32.84 38.76 32.86 38.73 32.87 38.7 32.89 38.46 33.02 38.21 33.15 37.97 33.25 37.88 33.29 37.78 33.32 37.69 33.36 37.52 33.43 37.36 33.5 37.2 33.55 37.2 33.55 38.69 35.16 38.69 35.16ZM 20.67 34.63C 20.59 34.58 20.51 34.54 20.43 34.5 20.24 34.41 20.04 34.34 19.83 34.28 19.45 34.17 19.06 34.09 18.64 34.09 16.94 34.09 15.47 35.09 14.8 36.52 14.78 36.58 14.75 36.63 14.73 36.68 14.64 36.88 14.57 37.1 14.52 37.32 14.51 37.39 14.49 37.46 14.48 37.53 14.44 37.77 14.41 38.01 14.41 38.26 14.41 38.51 14.44 38.75 14.48 38.99 14.49 39.06 14.51 39.13 14.52 39.2 14.58 39.42 14.64 39.64 14.73 39.84 14.75 39.89 14.78 39.94 14.8 39.99 15.48 41.42 16.94 42.43 18.64 42.43 20.98 42.43 22.88 40.56 22.88 38.26 22.88 37.5 22.66 36.79 22.29 36.18 22.2 36.03 22.1 35.88 22 35.74 21.93 35.66 21.86 35.57 21.78 35.49 21.66 35.36 21.54 35.24 21.4 35.12 21.32 35.06 21.24 34.99 21.16 34.92 21 34.81 20.84 34.72 20.67 34.63ZM 21.31 33.05C 21.32 33.05 21.32 33.06 21.33 33.07 21.74 33.27 22.11 33.51 22.46 33.8 22.48 33.82 22.5 33.84 22.52 33.86 22.66 33.98 22.8 34.1 22.93 34.23 22.97 34.28 23.01 34.32 23.05 34.37 23.16 34.48 23.26 34.61 23.36 34.73 23.38 34.76 23.4 34.79 23.43 34.81 24.35 32.85 26.33 31.48 28.12 30.24 28.12 30.24 28.12 30.24 28.12 30.24 28.12 30.24 23.13 27.23 23.13 27.23 22.82 29.21 22.48 31.39 21.31 33.05ZM 10.47 12.76C 10.12 12.55 9.81 12.26 9.57 11.91 9.32 12.6 9.18 13.39 9.15 14.17 9.15 14.17 11.02 14.17 11.02 14.17 11.48 14.17 11.86 14.54 11.86 15 11.86 15.46 11.48 15.83 11.02 15.83 11.02 15.83 9.3 15.83 9.3 15.83 9.5 16.67 9.89 17.3 10.42 17.62 10.42 17.62 22.55 24.93 22.55 24.93 22.69 24.94 22.83 24.97 22.95 25.05 22.95 25.05 30.16 29.44 30.16 29.44 30.25 29.5 30.33 29.57 30.39 29.66 30.39 29.66 34.13 31.91 34.13 31.91 34.63 32.21 35.29 32.26 35.99 32.14 36.03 32.13 36.07 32.12 36.11 32.11 36.28 32.07 36.46 32.03 36.63 31.97 36.71 31.95 36.78 31.92 36.86 31.9 37.02 31.84 37.18 31.77 37.35 31.7 37.4 31.67 37.46 31.65 37.51 31.63 37.71 31.53 37.9 31.43 38.1 31.31 38.19 31.26 38.28 31.2 38.37 31.14 38.47 31.07 38.58 31 38.69 30.92 38.78 30.85 38.88 30.79 38.97 30.71 39.09 30.62 39.2 30.53 39.3 30.43 39.35 30.39 39.4 30.35 39.45 30.3 39.45 30.3 39.46 30.3 39.46 30.29 39.47 30.28 39.49 30.27 39.5 30.26 39.5 30.26 10.47 12.76 10.47 12.76ZM 12.58 5.24C 12.58 5.24 11.96 6.23 11.96 6.23 11.47 7.02 11.17 8.26 11.18 9.4 11.19 10.57 11.52 11.44 12.08 11.78 12.08 11.78 30.07 22.62 30.07 22.62 30.07 22.62 41.25 29.36 41.25 29.36 41.25 29.36 42.28 29.98 42.28 29.98 42.42 30.06 42.58 30.11 42.75 30.15 42.85 30.16 42.97 30.16 43.09 30.16 43.17 30.16 43.23 30.17 43.31 30.16 43.45 30.15 43.6 30.12 43.76 30.08 43.83 30.06 43.89 30.06 43.96 30.04 44.12 29.99 44.28 29.93 44.44 29.86 44.58 29.81 44.71 29.77 44.85 29.7 45.89 29.19 46.88 28.35 47.36 27.57 47.36 27.57 47.98 26.58 47.98 26.58 47.98 26.58 12.58 5.24 12.58 5.24ZM 18.64 41.59C 16.77 41.59 15.25 40.1 15.25 38.26 15.25 36.42 16.77 34.93 18.64 34.93 20.51 34.93 22.03 36.42 22.03 38.26 22.03 40.1 20.51 41.59 18.64 41.59ZM 18.64 36.59C 17.71 36.59 16.95 37.34 16.95 38.26 16.95 39.18 17.71 39.93 18.64 39.93 19.58 39.93 20.34 39.18 20.34 38.26 20.34 37.34 19.58 36.59 18.64 36.59Z" fill="rgb(169,197,59)"/></svg>