<?xml version="1.0" encoding="utf-8"?>
<svg xmlns="http://www.w3.org/2000/svg"
	xmlns:xlink="http://www.w3.org/1999/xlink"
	width="50px" height="41px" viewBox="0 0 50 41">
<path fillRule="evenodd" d="M 48.96 12.29C 48.96 12.29 14.58 12.29 14.58 12.29 14.58 12.29 14.58 10.24 14.58 10.24 14.58 10.24 15.67 10.24 15.67 10.24 16.24 10.24 16.71 9.78 16.71 9.21 16.71 8.86 16.53 8.55 16.26 8.37 16.26 8.37 9.12 0.33 9.12 0.33 8.72-0.11 7.94-0.11 7.55 0.33 7.55 0.33 0.26 8.54 0.26 8.54-0.01 8.84-0.08 9.27 0.09 9.63 0.26 10 0.63 10.24 1.04 10.24 1.04 10.24 2.08 10.24 2.08 10.24 2.08 10.24 2.08 39.97 2.08 39.97 2.08 40.54 2.55 41 3.12 41 3.7 41 4.17 40.54 4.17 39.97 4.17 39.97 4.17 38.95 4.17 38.95 4.17 38.95 12.5 38.95 12.5 38.95 12.5 38.95 12.5 39.97 12.5 39.97 12.5 40.54 12.97 41 13.54 41 14.12 41 14.58 40.54 14.58 39.97 14.58 39.97 14.58 14.34 14.58 14.34 14.58 14.34 20.83 14.34 20.83 14.34 20.83 14.34 20.83 24.78 20.83 24.78 19.62 25.21 18.75 26.33 18.75 27.67 18.75 29.37 20.15 30.75 21.87 30.75 23.6 30.75 25 29.37 25 27.67 25 26.33 24.13 25.21 22.92 24.78 22.92 24.78 22.92 14.34 22.92 14.34 22.92 14.34 31.25 14.34 31.25 14.34 31.25 14.34 31.25 22.73 31.25 22.73 30.04 23.15 29.17 24.28 29.17 25.62 29.17 27.31 30.57 28.69 32.29 28.69 34.01 28.69 35.42 27.31 35.42 25.62 35.42 24.28 34.54 23.15 33.33 22.73 33.33 22.73 33.33 14.34 33.33 14.34 33.33 14.34 39.58 14.34 39.58 14.34 39.58 14.34 39.58 39.97 39.58 39.97 39.58 40.54 40.05 41 40.62 41 41.2 41 41.67 40.54 41.67 39.97 41.67 39.97 41.67 14.34 41.67 14.34 41.67 14.34 45.83 14.34 45.83 14.34 45.83 14.34 45.83 16.6 45.83 16.6 45.21 16.86 44.79 17.33 44.79 17.93 44.79 18.53 45.21 18.99 45.83 19.25 45.83 19.25 45.83 22.24 45.83 22.24 45.21 22.5 44.79 22.97 44.79 23.57 44.79 24.17 45.21 24.63 45.83 24.89 45.83 24.89 45.83 27.88 45.83 27.88 45.21 28.14 44.79 28.61 44.79 29.21 44.79 29.81 45.21 30.27 45.83 30.53 45.83 30.53 45.83 33.52 45.83 33.52 45.21 33.78 44.79 34.25 44.79 34.85 44.79 35.45 45.21 35.91 45.83 36.17 45.83 36.17 45.83 37.92 45.83 37.92 45.83 38.49 46.3 38.95 46.87 38.95 47.45 38.95 47.92 38.49 47.92 37.92 47.92 37.92 47.92 36.17 47.92 36.17 48.54 35.91 48.96 35.45 48.96 34.85 48.96 34.25 48.54 33.78 47.92 33.52 47.92 33.52 47.92 30.53 47.92 30.53 48.54 30.27 48.96 29.81 48.96 29.21 48.96 28.61 48.54 28.14 47.92 27.88 47.92 27.88 47.92 24.89 47.92 24.89 48.54 24.63 48.96 24.17 48.96 23.57 48.96 22.97 48.54 22.5 47.92 22.24 47.92 22.24 47.92 19.25 47.92 19.25 48.54 18.99 48.96 18.53 48.96 17.93 48.96 17.33 48.54 16.86 47.92 16.6 47.92 16.6 47.92 14.34 47.92 14.34 47.92 14.34 48.96 14.34 48.96 14.34 49.53 14.34 50 13.88 50 13.31 50 12.75 49.53 12.29 48.96 12.29ZM 12.5 36.9C 12.5 36.9 4.17 36.9 4.17 36.9 4.17 36.9 4.17 32.8 4.17 32.8 4.17 32.8 12.5 32.8 12.5 32.8 12.5 32.8 12.5 36.9 12.5 36.9ZM 12.5 30.75C 12.5 30.75 4.17 30.75 4.17 30.75 4.17 30.75 4.17 26.64 4.17 26.64 4.17 26.64 12.5 26.64 12.5 26.64 12.5 26.64 12.5 30.75 12.5 30.75ZM 12.5 24.59C 12.5 24.59 4.17 24.59 4.17 24.59 4.17 24.59 4.17 20.49 4.17 20.49 4.17 20.49 12.5 20.49 12.5 20.49 12.5 20.49 12.5 24.59 12.5 24.59ZM 12.5 18.44C 12.5 18.44 4.17 18.44 4.17 18.44 4.17 18.44 4.17 10.24 4.17 10.24 4.17 10.24 12.5 10.24 12.5 10.24 12.5 10.24 12.5 18.44 12.5 18.44ZM 21.87 28.69C 21.3 28.69 20.83 28.23 20.83 27.67 20.83 27.1 21.3 26.64 21.87 26.64 22.45 26.64 22.92 27.1 22.92 27.67 22.92 28.23 22.45 28.69 21.87 28.69ZM 32.29 26.64C 31.72 26.64 31.25 26.18 31.25 25.62 31.25 25.05 31.72 24.59 32.29 24.59 32.87 24.59 33.33 25.05 33.33 25.62 33.33 26.18 32.87 26.64 32.29 26.64Z" fill="rgb(169,197,59)"/></svg>