<?xml version="1.0" encoding="utf-8"?>
<svg xmlns="http://www.w3.org/2000/svg"
	xmlns:xlink="http://www.w3.org/1999/xlink"
	width="50px" height="50px" viewBox="0 0 50 50">
<path fillRule="evenodd" d="M 49-0C 49-0 1-0 1-0 0.45-0-0 0.45-0 1-0 1-0 48.99-0 48.99-0 49.55 0.45 50 1 50 1 50 30.27 50 30.27 50 30.83 50 31.28 49.55 31.28 48.99 31.28 48.44 30.83 47.99 30.27 47.99 30.27 47.99 2.01 47.99 2.01 47.99 2.01 47.99 2.01 24.57 2.01 24.57 2.01 24.57 16.02 24.57 16.02 24.57 16.02 24.57 16.02 34.21 16.02 34.21 16.02 34.76 16.47 35.21 17.03 35.21 17.58 35.21 18.03 34.76 18.03 34.21 18.03 34.21 18.03 13.17 18.03 13.17 18.03 12.61 17.58 12.16 17.03 12.16 16.47 12.16 16.02 12.61 16.02 13.17 16.02 13.17 16.02 22.56 16.02 22.56 16.02 22.56 2.01 22.56 2.01 22.56 2.01 22.56 2.01 2.01 2.01 2.01 2.01 2.01 29.27 2.01 29.27 2.01 29.27 2.01 29.27 14.59 29.27 14.59 29.27 15.14 29.72 15.59 30.27 15.59 30.27 15.59 40.9 15.59 40.9 15.59 41.45 15.59 41.9 15.14 41.9 14.59 41.9 14.03 41.45 13.58 40.9 13.58 40.9 13.58 31.28 13.58 31.28 13.58 31.28 13.58 31.28 2.01 31.28 2.01 31.28 2.01 47.99 2.01 47.99 2.01 47.99 2.01 47.99 33.2 47.99 33.2 47.99 33.2 30.27 33.2 30.27 33.2 29.72 33.2 29.27 33.65 29.27 34.21 29.27 34.76 29.72 35.21 30.27 35.21 30.27 35.21 47.99 35.21 47.99 35.21 47.99 35.21 47.99 47.99 47.99 47.99 47.99 47.99 40.9 47.99 40.9 47.99 40.34 47.99 39.89 48.44 39.89 48.99 39.89 49.55 40.34 50 40.9 50 40.9 50 49 50 49 50 49.55 50 50 49.55 50 48.99 50 48.99 50 1 50 1 50 0.45 49.55-0 49-0Z" fill="rgb(169,197,59)"/></svg>