<?xml version="1.0" encoding="utf-8"?>
<svg xmlns="http://www.w3.org/2000/svg"
	xmlns:xlink="http://www.w3.org/1999/xlink"
	width="48px" height="50px" viewBox="0 0 48 50">
<path fillRule="evenodd" d="M 47.24 7.14C 47.24 7.14 46.57 7.14 46.57 7.14 46.57 7.14 46.57 18.37 46.57 18.37 46.57 23.94 42.12 28.47 36.64 28.47 36.64 28.47 30.88 28.47 30.88 28.47 30.88 28.47 30.88 29.55 30.88 29.55 30.88 29.98 30.54 30.33 30.11 30.33 30.11 30.33 27.67 30.33 27.67 30.33 27.25 30.33 26.9 29.98 26.9 29.55 26.9 29.55 26.9 28.47 26.9 28.47 26.9 28.47 21.91 28.47 21.91 28.47 21.91 28.47 21.91 29.55 21.91 29.55 21.91 29.98 21.57 30.33 21.15 30.33 21.15 30.33 18.7 30.33 18.7 30.33 18.28 30.33 17.94 29.98 17.94 29.55 17.94 29.55 17.94 28.47 17.94 28.47 17.94 28.47 11.36 28.47 11.36 28.47 10.1 28.47 9.07 29.51 9.07 30.8 9.07 30.8 9.07 42.65 9.07 42.65 9.07 42.65 9.73 42.65 9.73 42.65 10.15 42.65 10.5 43 10.5 43.43 10.5 43.43 10.5 45.91 10.5 45.91 10.5 46.34 10.15 46.69 9.73 46.69 9.73 46.69 9.07 46.69 9.07 46.69 9.07 46.69 9.07 49.02 9.07 49.02 9.07 49.44 8.73 49.79 8.31 49.79 8.31 49.79 2.39 49.79 2.39 49.79 1.97 49.79 1.63 49.44 1.63 49.02 1.63 49.02 1.63 46.69 1.63 46.69 1.63 46.69 0.76 46.69 0.76 46.69 0.34 46.69-0 46.34-0 45.91-0 45.91-0 43.43-0 43.43-0 43 0.34 42.65 0.76 42.65 0.76 42.65 1.63 42.65 1.63 42.65 1.63 42.65 1.63 38.46 1.63 38.46 1.63 38.03 1.97 37.68 2.39 37.68 2.82 37.68 3.16 38.03 3.16 38.46 3.16 38.46 3.16 42.65 3.16 42.65 3.16 42.65 7.54 42.65 7.54 42.65 7.54 42.65 7.54 30.8 7.54 30.8 7.54 28.66 9.26 26.91 11.36 26.91 11.36 26.91 17.94 26.91 17.94 26.91 17.94 26.91 17.94 22.26 17.94 22.26 17.94 22.26 11.57 22.26 11.57 22.26 6.93 22.26 3.16 26.09 3.16 30.8 3.16 30.8 3.16 34.32 3.16 34.32 3.16 34.74 2.82 35.09 2.39 35.09 1.97 35.09 1.63 34.74 1.63 34.32 1.63 34.32 1.63 30.8 1.63 30.8 1.63 25.23 6.09 20.7 11.57 20.7 11.57 20.7 17.94 20.7 17.94 20.7 17.94 20.7 17.94 19.62 17.94 19.62 17.94 19.19 18.28 18.84 18.7 18.84 18.7 18.84 21.15 18.84 21.15 18.84 21.57 18.84 21.91 19.19 21.91 19.62 21.91 19.62 21.91 20.7 21.91 20.7 21.91 20.7 23.64 20.7 23.64 20.7 23.64 20.7 23.64 15.22 23.64 15.22 23.64 15.22 22.82 15.22 22.82 15.22 22.49 16.41 21.41 17.29 20.13 17.29 18.58 17.29 17.32 16.01 17.32 14.44 17.32 12.87 18.58 11.59 20.13 11.59 21.41 11.59 22.49 12.47 22.82 13.66 22.82 13.66 25.99 13.66 25.99 13.66 26.33 12.47 27.41 11.59 28.69 11.59 30.23 11.59 31.49 12.87 31.49 14.44 31.49 16.01 30.23 17.29 28.69 17.29 27.41 17.29 26.33 16.41 25.99 15.22 25.99 15.22 25.17 15.22 25.17 15.22 25.17 15.22 25.17 20.7 25.17 20.7 25.17 20.7 26.9 20.7 26.9 20.7 26.9 20.7 26.9 19.62 26.9 19.62 26.9 19.19 27.25 18.84 27.67 18.84 27.67 18.84 30.11 18.84 30.11 18.84 30.54 18.84 30.88 19.19 30.88 19.62 30.88 19.62 30.88 20.7 30.88 20.7 30.88 20.7 36.84 20.7 36.84 20.7 38.11 20.7 39.13 19.66 39.13 18.37 39.13 18.37 39.13 13.61 39.13 13.61 39.13 13.18 39.48 12.84 39.9 12.84 40.32 12.84 40.66 13.18 40.66 13.61 40.66 13.61 40.66 18.37 40.66 18.37 40.66 20.51 38.95 22.26 36.84 22.26 36.84 22.26 30.88 22.26 30.88 22.26 30.88 22.26 30.88 26.91 30.88 26.91 30.88 26.91 36.64 26.91 36.64 26.91 41.27 26.91 45.04 23.08 45.04 18.37 45.04 18.37 45.04 7.14 45.04 7.14 45.04 7.14 40.66 7.14 40.66 7.14 40.66 7.14 40.66 9.47 40.66 9.47 40.66 9.9 40.32 10.25 39.9 10.25 39.48 10.25 39.13 9.9 39.13 9.47 39.13 9.47 39.13 7.14 39.13 7.14 39.13 7.14 38.27 7.14 38.27 7.14 37.85 7.14 37.5 6.79 37.5 6.37 37.5 6.37 37.5 3.88 37.5 3.88 37.5 3.45 37.85 3.11 38.27 3.11 38.27 3.11 39.13 3.11 39.13 3.11 39.13 3.11 39.13 0.78 39.13 0.78 39.13 0.35 39.48-0 39.9-0 39.9-0 45.81-0 45.81-0 46.23-0 46.57 0.35 46.57 0.78 46.57 0.78 46.57 3.11 46.57 3.11 46.57 3.11 47.24 3.11 47.24 3.11 47.66 3.11 48 3.45 48 3.88 48 3.88 48 6.37 48 6.37 48 6.79 47.66 7.14 47.24 7.14ZM 3.16 48.24C 3.16 48.24 7.54 48.24 7.54 48.24 7.54 48.24 7.54 48.24 7.54 48.24 7.54 48.24 7.54 46.69 7.54 46.69 7.54 46.69 3.16 46.69 3.16 46.69 3.16 46.69 3.16 48.24 3.16 48.24ZM 8.97 44.2C 8.97 44.2 1.53 44.2 1.53 44.2 1.53 44.2 1.53 45.13 1.53 45.13 1.53 45.13 8.97 45.13 8.97 45.13 8.97 45.13 8.97 44.2 8.97 44.2ZM 20.38 20.39C 20.38 20.39 19.46 20.39 19.46 20.39 19.46 20.39 19.46 28.78 19.46 28.78 19.46 28.78 20.38 28.78 20.38 28.78 20.38 28.78 20.38 20.39 20.38 20.39ZM 20.13 13.15C 19.42 13.15 18.85 13.73 18.85 14.44 18.85 15.15 19.42 15.73 20.13 15.73 20.83 15.73 21.4 15.15 21.4 14.44 21.4 13.73 20.83 13.15 20.13 13.15ZM 28.69 15.73C 29.39 15.73 29.96 15.15 29.96 14.44 29.96 13.73 29.39 13.15 28.69 13.15 27.99 13.15 27.41 13.73 27.41 14.44 27.41 15.15 27.99 15.73 28.69 15.73ZM 26.9 22.26C 26.9 22.26 21.91 22.26 21.91 22.26 21.91 22.26 21.91 26.92 21.91 26.92 21.91 26.92 26.9 26.92 26.9 26.92 26.9 26.92 26.9 22.26 26.9 22.26ZM 29.35 20.39C 29.35 20.39 28.43 20.39 28.43 20.39 28.43 20.39 28.43 28.78 28.43 28.78 28.43 28.78 29.35 28.78 29.35 28.78 29.35 28.78 29.35 20.39 29.35 20.39ZM 45.04 1.55C 45.04 1.55 40.66 1.55 40.66 1.55 40.66 1.55 40.66 3.11 40.66 3.11 40.66 3.11 45.04 3.11 45.04 3.11 45.04 3.11 45.04 1.55 45.04 1.55ZM 46.47 4.66C 46.47 4.66 39.03 4.66 39.03 4.66 39.03 4.66 39.03 5.59 39.03 5.59 39.03 5.59 46.47 5.59 46.47 5.59 46.47 5.59 46.47 4.66 46.47 4.66ZM 25.23 37.39C 25.6 37.17 26.06 37.3 26.28 37.66 28.47 41.46 28.64 42.87 28.64 43.22 28.64 45.59 26.74 47.51 24.41 47.51 23.99 47.51 23.64 47.17 23.64 46.74 23.64 46.31 23.99 45.96 24.41 45.96 25.9 45.96 27.11 44.73 27.11 43.22 27.11 43.18 27.03 42.04 24.96 38.45 24.75 38.08 24.87 37.61 25.23 37.39ZM 25.03 31.17C 25.06 31.21 25.75 32.19 26.68 33.62 26.91 33.98 26.81 34.46 26.46 34.69 26.1 34.93 25.63 34.83 25.4 34.47 25.02 33.88 24.68 33.37 24.41 32.97 22.55 35.7 19.26 40.99 19.26 43.22 19.26 46.1 21.57 48.45 24.41 48.45 27.25 48.45 29.55 46.1 29.55 43.22 29.55 42.58 29.23 40.94 27.07 37.19 26.86 36.82 26.98 36.35 27.34 36.13 27.71 35.91 28.17 36.04 28.39 36.41 30.2 39.55 31.08 41.78 31.08 43.22 31.08 46.96 28.09 50 24.41 50 20.73 50 17.73 46.96 17.73 43.22 17.73 39.75 23.17 32.04 23.79 31.17 24.09 30.75 24.73 30.75 25.03 31.17Z" fill="rgb(169,197,59)"/></svg>