<?xml version="1.0" encoding="utf-8"?>
<svg xmlns="http://www.w3.org/2000/svg"
	xmlns:xlink="http://www.w3.org/1999/xlink"
	width="50px" height="50px" viewBox="0 0 50 50">
<path fillRule="evenodd" d="M 25 50C 8.59 50 0 46.44 0 42.92 0 39.78 6.13 36.87 14.9 35.84 15.36 35.78 15.77 36.11 15.83 36.57 15.88 37.03 15.55 37.44 15.1 37.49 6.33 38.52 1.67 41.31 1.67 42.92 1.67 45.18 10.54 48.33 25 48.33 39.46 48.33 48.33 45.18 48.33 42.92 48.33 41.31 43.67 38.52 34.9 37.49 34.45 37.44 34.12 37.03 34.17 36.57 34.23 36.11 34.64 35.78 35.1 35.84 43.87 36.87 50 39.78 50 42.92 50 46.44 41.41 50 25 50ZM 24.85 45.63C 24.85 45.63 12.05 27.14 12.05 27.14 7.27 20.77 7.97 10.27 13.55 4.68 16.57 1.66 20.58-0 24.85-0 29.12-0 33.13 1.66 36.15 4.68 41.74 10.27 42.43 20.77 37.64 27.17 37.64 27.17 24.85 45.63 24.85 45.63ZM 34.97 5.86C 32.27 3.16 28.68 1.67 24.85 1.67 21.03 1.67 17.43 3.16 14.73 5.86 9.69 10.9 9.07 20.39 13.4 26.17 13.4 26.17 24.85 42.7 24.85 42.7 24.85 42.7 36.28 26.19 36.28 26.19 40.64 20.39 40.02 10.9 34.97 5.86ZM 25 21.67C 21.78 21.67 19.17 19.05 19.17 15.83 19.17 12.62 21.78 10 25 10 28.22 10 30.83 12.62 30.83 15.83 30.83 19.05 28.22 21.67 25 21.67ZM 25 11.67C 22.7 11.67 20.83 13.54 20.83 15.83 20.83 18.13 22.7 20 25 20 27.3 20 29.17 18.13 29.17 15.83 29.17 13.54 27.3 11.67 25 11.67Z" fill="rgb(169,197,59)"/></svg>