<?xml version="1.0" encoding="utf-8"?>
<svg xmlns="http://www.w3.org/2000/svg"
	xmlns:xlink="http://www.w3.org/1999/xlink"
	width="50px" height="50px" viewBox="0 0 50 50">
<path fillRule="evenodd" d="M 49.49 29.1C 49.38 29.14 49.27 29.17 49.17 29.17 48.95 29.17 48.74 29.08 48.58 28.92 48.58 28.92 25 5.34 25 5.34 25 5.34 1.43 28.92 1.43 28.92 1.27 29.08 1.05 29.17 0.84 29.17 0.73 29.17 0.62 29.14 0.52 29.1 0.21 28.97 0 28.67 0 28.33 0 28.33-0 7.5-0 7.5-0 7.28 0.09 7.07 0.24 6.91 0.4 6.75 0.61 6.67 0.83 6.67 0.83 6.67 10 6.67 10 6.67 10 6.67 10 5 10 5 10 5 9.17 5 9.17 5 8.71 5 8.33 4.63 8.33 4.17 8.33 4.17 8.33 0.83 8.33 0.83 8.33 0.37 8.71-0 9.17-0 9.17-0 15.83-0 15.83-0 16.29-0 16.67 0.37 16.67 0.83 16.67 0.83 16.67 4.17 16.67 4.17 16.67 4.63 16.29 5 15.83 5 15.83 5 15 5 15 5 15 5 15 6.67 15 6.67 15 6.67 16.67 6.67 16.67 6.67 17.13 6.67 17.5 7.04 17.5 7.5 17.5 7.96 17.13 8.33 16.67 8.33 16.67 8.33 14.17 8.33 14.17 8.33 13.71 8.33 13.33 7.96 13.33 7.5 13.33 7.5 13.33 4.17 13.33 4.17 13.33 3.71 13.71 3.33 14.17 3.33 14.17 3.33 15 3.33 15 3.33 15 3.33 15 1.67 15 1.67 15 1.67 10 1.67 10 1.67 10 1.67 10 3.33 10 3.33 10 3.33 10.83 3.33 10.83 3.33 11.29 3.33 11.67 3.71 11.67 4.17 11.67 4.17 11.67 7.5 11.67 7.5 11.67 7.96 11.29 8.33 10.83 8.33 10.83 8.33 1.67 8.33 1.67 8.33 1.67 8.33 1.67 26.32 1.67 26.32 1.67 26.32 24.41 3.58 24.41 3.58 24.57 3.41 24.78 3.33 25 3.33 25.21 3.33 25.43 3.41 25.59 3.58 25.59 3.58 48.33 26.32 48.33 26.32 48.33 26.32 48.33 8.33 48.33 8.33 48.33 8.33 33.33 8.33 33.33 8.33 32.87 8.33 32.5 7.96 32.5 7.5 32.5 7.04 32.87 6.67 33.33 6.67 33.33 6.67 49.17 6.67 49.17 6.67 49.63 6.67 50 7.04 50 7.5 50 7.5 50 28.33 50 28.33 50 28.67 49.8 28.97 49.49 29.1ZM 3.33 43.33C 3.33 43.33 3.33 30 3.33 30 3.33 29.54 3.71 29.17 4.17 29.17 4.63 29.17 5 29.54 5 30 5 30 5 43.74 5 43.74 5.15 43.82 5.29 43.91 5.42 44 6.1 42.62 7.53 41.67 9.17 41.67 11.22 41.67 12.93 43.16 13.27 45.12 14.27 45.45 15 46.39 15 47.5 15 48.88 13.88 50 12.5 50 12.5 50 3.33 50 3.33 50 1.5 50-0 48.5-0 46.67-0 44.83 1.5 43.33 3.33 43.33ZM 3.33 48.33C 3.33 48.33 12.5 48.33 12.5 48.33 12.96 48.33 13.33 47.96 13.33 47.5 13.33 47.04 12.96 46.67 12.5 46.67 12.04 46.67 11.67 46.29 11.67 45.83 11.67 44.45 10.54 43.33 9.17 43.33 7.79 43.33 6.67 44.45 6.67 45.83 6.67 46.24 6.38 46.58 5.98 46.65 5.58 46.72 5.19 46.5 5.05 46.12 4.8 45.45 4.11 45 3.33 45 2.41 45 1.67 45.75 1.67 46.67 1.67 47.59 2.41 48.33 3.33 48.33ZM 9.17 28.33C 9.17 28.33 15.83 28.33 15.83 28.33 16.29 28.33 16.67 28.71 16.67 29.17 16.67 29.17 16.67 38.33 16.67 38.33 16.67 38.33 17.5 38.33 17.5 38.33 17.96 38.33 18.33 38.71 18.33 39.17 18.33 39.63 17.96 40 17.5 40 17.5 40 7.5 40 7.5 40 7.04 40 6.67 39.63 6.67 39.17 6.67 38.71 7.04 38.33 7.5 38.33 7.5 38.33 8.33 38.33 8.33 38.33 8.33 38.33 8.33 29.17 8.33 29.17 8.33 28.71 8.71 28.33 9.17 28.33ZM 10 38.33C 10 38.33 15 38.33 15 38.33 15 38.33 15 35 15 35 15 35 10 35 10 35 10 35 10 38.33 10 38.33ZM 10 33.33C 10 33.33 15 33.33 15 33.33 15 33.33 15 30 15 30 15 30 10 30 10 30 10 30 10 33.33 10 33.33ZM 21.67 16.67C 21.67 14.83 23.16 13.33 25 13.33 26.84 13.33 28.33 14.83 28.33 16.67 28.33 18.5 26.84 20 25 20 23.16 20 21.67 18.5 21.67 16.67ZM 26.67 16.67C 26.67 15.75 25.92 15 25 15 24.08 15 23.33 15.75 23.33 16.67 23.33 17.59 24.08 18.33 25 18.33 25.92 18.33 26.67 17.59 26.67 16.67ZM 17.5 45C 17.5 45 20 45 20 45 20 45 20 29.17 20 29.17 20 28.71 20.37 28.33 20.83 28.33 20.83 28.33 29.17 28.33 29.17 28.33 29.63 28.33 30 28.71 30 29.17 30 29.17 30 45 30 45 30 45 32.5 45 32.5 45 32.96 45 33.33 45.37 33.33 45.83 33.33 46.29 32.96 46.67 32.5 46.67 32.5 46.67 18.33 46.67 18.33 46.67 18.33 46.67 18.33 49.17 18.33 49.17 18.33 49.63 17.96 50 17.5 50 17.04 50 16.67 49.63 16.67 49.17 16.67 49.17 16.67 45.83 16.67 45.83 16.67 45.37 17.04 45 17.5 45ZM 21.67 45C 21.67 45 28.33 45 28.33 45 28.33 45 28.33 38.33 28.33 38.33 28.33 38.33 27.5 38.33 27.5 38.33 27.04 38.33 26.67 37.96 26.67 37.5 26.67 37.04 27.04 36.67 27.5 36.67 27.5 36.67 28.33 36.67 28.33 36.67 28.33 36.67 28.33 30 28.33 30 28.33 30 21.67 30 21.67 30 21.67 30 21.67 45 21.67 45ZM 34.17 28.33C 34.17 28.33 40.83 28.33 40.83 28.33 41.29 28.33 41.67 28.71 41.67 29.17 41.67 29.17 41.67 38.33 41.67 38.33 41.67 38.33 42.5 38.33 42.5 38.33 42.96 38.33 43.33 38.71 43.33 39.17 43.33 39.63 42.96 40 42.5 40 42.5 40 32.5 40 32.5 40 32.04 40 31.67 39.63 31.67 39.17 31.67 38.71 32.04 38.33 32.5 38.33 32.5 38.33 33.33 38.33 33.33 38.33 33.33 38.33 33.33 29.17 33.33 29.17 33.33 28.71 33.71 28.33 34.17 28.33ZM 35 38.33C 35 38.33 40 38.33 40 38.33 40 38.33 40 35 40 35 40 35 35 35 35 35 35 35 35 38.33 35 38.33ZM 35 33.33C 35 33.33 40 33.33 40 33.33 40 33.33 40 30 40 30 40 30 35 30 35 30 35 30 35 33.33 35 33.33ZM 20.83 48.33C 20.83 48.33 35.15 48.33 35.15 48.33 35.06 48.07 35 47.79 35 47.5 35 46.39 35.73 45.45 36.73 45.12 37.07 43.16 38.78 41.67 40.83 41.67 42.47 41.67 43.9 42.62 44.58 44 44.71 43.91 44.85 43.82 45 43.74 45 43.74 45 30 45 30 45 29.54 45.37 29.17 45.83 29.17 46.29 29.17 46.67 29.54 46.67 30 46.67 30 46.67 43.33 46.67 43.33 48.5 43.33 50 44.83 50 46.67 50 48.5 48.5 50 46.67 50 46.67 50 40.83 50 40.83 50 40.83 50 37.5 50 37.5 50 37.5 50 20.83 50 20.83 50 20.37 50 20 49.63 20 49.17 20 48.71 20.37 48.33 20.83 48.33ZM 37.5 48.33C 37.5 48.33 40.83 48.33 40.83 48.33 40.83 48.33 46.67 48.33 46.67 48.33 47.59 48.33 48.33 47.59 48.33 46.67 48.33 45.75 47.59 45 46.67 45 45.89 45 45.2 45.45 44.95 46.12 44.81 46.5 44.41 46.73 44.02 46.65 43.62 46.58 43.33 46.24 43.33 45.83 43.33 44.45 42.21 43.33 40.83 43.33 39.45 43.33 38.33 44.45 38.33 45.83 38.33 46.29 37.96 46.67 37.5 46.67 37.04 46.67 36.67 47.04 36.67 47.5 36.67 47.96 37.04 48.33 37.5 48.33Z" fill="rgb(169,197,59)"/></svg>