<?xml version="1.0" encoding="utf-8"?>
<svg xmlns="http://www.w3.org/2000/svg"
	xmlns:xlink="http://www.w3.org/1999/xlink"
	width="50px" height="50px" viewBox="0 0 50 50">
<path fillRule="evenodd" d="M 49.12 11.48C 49.12 11.48 44.99 11.48 44.99 11.48 44.14 15.18 42.24 18.57 39.45 21.31 38.44 22.29 37.35 23.15 36.2 23.9 36.2 23.9 39.15 33.92 39.15 33.92 39.16 33.95 39.18 33.98 39.19 34.01 39.21 34.07 39.22 34.12 39.22 34.17 39.22 34.17 43.31 48.03 43.31 48.03 43.44 48.49 43.18 48.97 42.71 49.1 42.63 49.12 42.55 49.13 42.47 49.13 42.09 49.13 41.74 48.89 41.62 48.51 41.62 48.51 37.76 35.39 37.76 35.39 37.76 35.39 25.91 39.23 25.91 39.23 25.91 39.23 25.91 49.13 25.91 49.13 25.91 49.61 25.51 50 25.03 50 24.54 50 24.15 49.61 24.15 49.13 24.15 49.13 24.15 39.19 24.15 39.19 24.15 39.19 12.32 35.39 12.32 35.39 12.32 35.39 8.45 48.51 8.45 48.51 8.34 48.89 7.99 49.13 7.61 49.13 7.53 49.13 7.45 49.12 7.37 49.1 6.9 48.97 6.63 48.49 6.77 48.03 6.77 48.03 10.85 34.17 10.85 34.17 10.86 34.12 10.87 34.07 10.89 34.01 10.9 33.98 10.91 33.95 10.93 33.92 10.93 33.92 13.88 23.91 13.88 23.91 12.72 23.16 11.62 22.29 10.61 21.31 7.82 18.57 5.92 15.18 5.07 11.48 5.07 11.48 0.88 11.48 0.88 11.48 0.39 11.48-0 11.09-0 10.62-0 10.14 0.39 9.75 0.88 9.75 0.88 9.75 4.75 9.75 4.75 9.75 4.67 9.17 4.61 8.59 4.58 8 4.58 8 3.76 8 3.76 8 2.47 8 1.41 6.96 1.41 5.68 1.41 4.4 2.47 3.36 3.76 3.36 3.76 3.36 6.46 3.36 6.46 3.36 6.86 1.44 8.59-0 10.64-0 12.7-0 14.42 1.44 14.82 3.36 14.82 3.36 16.21 3.36 16.21 3.36 16.61 1.44 18.33-0 20.39-0 22.45-0 24.17 1.44 24.57 3.36 24.57 3.36 25.96 3.36 25.96 3.36 26.36 1.44 28.08-0 30.14-0 32.19-0 33.92 1.44 34.32 3.36 34.32 3.36 35.7 3.36 35.7 3.36 36.1 1.44 37.83-0 39.88-0 41.94-0 43.66 1.44 44.06 3.36 44.06 3.36 46.3 3.36 46.3 3.36 47.59 3.36 48.65 4.4 48.65 5.68 48.65 6.96 47.59 8 46.3 8 46.3 8 45.47 8 45.47 8 45.44 8.59 45.39 9.17 45.31 9.75 45.31 9.75 49.12 9.75 49.12 9.75 49.61 9.75 50 10.14 50 10.62 50 11.09 49.61 11.48 49.12 11.48ZM 12.81 33.72C 12.81 33.72 24.15 37.37 24.15 37.37 24.15 37.37 24.15 33.48 24.15 33.48 24.15 33 24.54 32.62 25.03 32.62 25.51 32.62 25.91 33 25.91 33.48 25.91 33.48 25.91 37.39 25.91 37.39 25.91 37.39 37.27 33.72 37.27 33.72 37.27 33.72 34.64 24.81 34.64 24.81 31.97 26.22 29 27.02 25.91 27.14 25.91 27.14 25.91 30.28 25.91 30.28 25.91 30.76 25.51 31.14 25.03 31.14 24.54 31.14 24.15 30.76 24.15 30.28 24.15 30.28 24.15 27.14 24.15 27.14 21.07 27.02 18.11 26.22 15.44 24.82 15.44 24.82 12.81 33.72 12.81 33.72ZM 10.64 1.73C 9.56 1.73 8.64 2.4 8.29 3.35 8.29 3.35 13 3.35 13 3.35 12.64 2.4 11.72 1.73 10.64 1.73ZM 20.39 1.73C 19.31 1.73 18.39 2.4 18.03 3.35 18.03 3.35 22.75 3.35 22.75 3.35 22.39 2.4 21.47 1.73 20.39 1.73ZM 30.14 1.73C 29.06 1.73 28.14 2.4 27.78 3.35 27.78 3.35 32.49 3.35 32.49 3.35 32.14 2.4 31.21 1.73 30.14 1.73ZM 39.88 1.73C 38.8 1.73 37.88 2.4 37.53 3.35 37.53 3.35 42.24 3.35 42.24 3.35 41.88 2.4 40.96 1.73 39.88 1.73ZM 46.3 6.27C 46.62 6.27 46.89 6 46.89 5.68 46.89 5.35 46.62 5.09 46.3 5.09 46.3 5.09 3.76 5.09 3.76 5.09 3.43 5.09 3.17 5.35 3.17 5.68 3.17 6 3.43 6.27 3.76 6.27 3.76 6.27 35.45 6.27 35.45 6.27 35.94 6.27 36.33 6.66 36.33 7.13 36.33 7.61 35.94 8 35.45 8 35.45 8 6.34 8 6.34 8 6.87 17.4 14.61 24.97 24.15 25.41 24.15 25.41 24.15 21.86 24.15 21.86 24.15 21.38 24.54 20.99 25.03 20.99 25.51 20.99 25.91 21.38 25.91 21.86 25.91 21.86 25.91 25.41 25.91 25.41 34.59 25.01 41.78 18.7 43.4 10.48 43.41 10.46 43.41 10.43 43.42 10.41 43.57 9.62 43.67 8.82 43.72 8 43.72 8 38.75 8 38.75 8 38.26 8 37.87 7.61 37.87 7.13 37.87 6.66 38.26 6.27 38.75 6.27 38.75 6.27 46.3 6.27 46.3 6.27ZM 18.76 21.52C 18.62 21.52 18.49 21.48 18.36 21.42 14.39 19.4 11.4 15.83 10.13 11.62 9.99 11.16 10.26 10.68 10.72 10.54 11.19 10.41 11.68 10.67 11.81 11.13 12.94 14.88 15.62 18.08 19.16 19.88 19.59 20.1 19.76 20.62 19.54 21.05 19.38 21.34 19.08 21.52 18.76 21.52Z" fill="rgb(169,197,59)"/></svg>