<?xml version="1.0" encoding="utf-8"?>
<svg xmlns="http://www.w3.org/2000/svg"
	xmlns:xlink="http://www.w3.org/1999/xlink"
	width="40px" height="55px" viewBox="0 0 40 55">
<path fillRule="evenodd" d="M 33.5 5.64C 29.89 2.01 25.1 0 20 0 14.9 0 10.1 2.01 6.5 5.64-0.18 12.37-1 25.04 4.7 32.71 4.7 32.71 20 54.99 20 54.99 20 54.99 35.27 32.74 35.27 32.74 41 25.04 40.17 12.37 33.5 5.64ZM 20.18 26.11C 16.33 26.11 13.21 22.96 13.21 19.08 13.21 15.21 16.33 12.05 20.18 12.05 24.02 12.05 27.15 15.21 27.15 19.08 27.15 22.96 24.02 26.11 20.18 26.11Z" fill="rgb(31,131,51)"/></svg>